<?xml version="1.0" encoding="UTF-8" standalone="no" ?>
<!DOCTYPE svg PUBLIC "-//W3C//DTD SVG 1.1//EN" "http://www.w3.org/Graphics/SVG/1.1/DTD/svg11.dtd">
<svg xmlns="http://www.w3.org/2000/svg" xmlns:xlink="http://www.w3.org/1999/xlink" version="1.1" width="98" height="200" viewBox="1 0 98 200" xml:space="preserve">
<desc>Created with Fabric.js 4.6.0</desc>
<defs>
</defs>
<g transform="matrix(1 0 0 1 50 125.48)" id="itlykn3LOW9ez99J-U-GK"  >
<path style="stroke: rgb(0,0,0); stroke-width: 5; stroke-dasharray: none; stroke-linecap: butt; stroke-dashoffset: 0; stroke-linejoin: miter; stroke-miterlimit: 4; fill: rgb(113,249,49); fill-opacity: 0; fill-rule: nonzero; opacity: 1;" vector-effect="non-scaling-stroke"  transform=" translate(-40.49, -40.49)" d="M 0 0 L 80.97341 0 L 80.97341 80.97341 L 0 80.97341 z" stroke-linecap="round" />
</g>
<g transform="matrix(0.57 0 0 0.57 49.68 165.65)" id="WQ6t8ZEJjQfygMzauq2aO"  >
<path style="stroke: rgb(0,0,0); stroke-width: 5; stroke-dasharray: none; stroke-linecap: butt; stroke-dashoffset: 0; stroke-linejoin: miter; stroke-miterlimit: 4; fill: rgb(58,120,49); fill-opacity: 0; fill-rule: nonzero; opacity: 1;" vector-effect="non-scaling-stroke"  transform=" translate(0, 0)" d="M 0 -45.50922 C 25.12109 -45.50922 45.50922 -25.12109 45.50922 0 C 45.50922 25.12109 25.12109 45.50922 0 45.50922 C -25.12109 45.50922 -45.50922 25.12109 -45.50922 0 C -45.50922 -25.12109 -25.12109 -45.50922 0 -45.50922 z" stroke-linecap="round" />
</g>
<g transform="matrix(0.97 0 0 0.93 50 53.43)" id="kaXGD24GcuqaNG_l5M6W2"  >
<path style="stroke: rgb(0,0,0); stroke-width: 5; stroke-dasharray: none; stroke-linecap: butt; stroke-dashoffset: 0; stroke-linejoin: miter; stroke-miterlimit: 4; fill: rgb(255,255,255); fill-opacity: 0; fill-rule: nonzero; opacity: 1;" vector-effect="non-scaling-stroke"  transform=" translate(0, 0)" d="M -39.60616 28.55609 L -0.6962499999999991 -28.556079999999998 L 39.60616 28.55609 z" stroke-linecap="round" />
</g>
<g transform="matrix(0.41 0 0 0.41 49.68 27.07)" id="_C9cIy3u_cHikJsO0n9ei"  >
<path style="stroke: rgb(0,0,0); stroke-width: 5; stroke-dasharray: none; stroke-linecap: butt; stroke-dashoffset: 0; stroke-linejoin: miter; stroke-miterlimit: 4; fill: rgb(58,120,49); fill-opacity: 0; fill-rule: nonzero; opacity: 1;" vector-effect="non-scaling-stroke"  transform=" translate(0, 0)" d="M 0 -45.50922 C 25.12109 -45.50922 45.50922 -25.12109 45.50922 0 C 45.50922 25.12109 25.12109 45.50922 0 45.50922 C -25.12109 45.50922 -45.50922 25.12109 -45.50922 0 C -45.50922 -25.12109 -25.12109 -45.50922 0 -45.50922 z" stroke-linecap="round" />
</g>
</svg>